<svg width="1600" height="1600" viewBox="0 0 1806 424" fill="object" xmlns="http://www.w3.org/2000/svg">
    <rect width="1200" height="424" fill="black"/>
    <path d="M58.642 140.545H96.5682L136.625 238.273H138.33L178.386 140.545H216.312V286H186.483V191.327H185.276L147.634 285.29H127.321L89.679 190.972H88.4716V286H58.642V140.545ZM241.082 286V176.909H271.337V286H241.082ZM256.281 162.847C251.782 162.847 247.924 161.355 244.704 158.372C241.531 155.342 239.945 151.72 239.945 147.506C239.945 143.339 241.531 139.764 244.704 136.781C247.924 133.751 251.782 132.236 256.281 132.236C260.779 132.236 264.614 133.751 267.786 136.781C271.006 139.764 272.616 143.339 272.616 147.506C272.616 151.72 271.006 155.342 267.786 158.372C264.614 161.355 260.779 162.847 256.281 162.847ZM325.83 222.932V286H295.574V176.909H324.409V196.156H325.688C328.102 189.812 332.151 184.793 337.832 181.099C343.514 177.359 350.403 175.489 358.5 175.489C366.076 175.489 372.681 177.146 378.315 180.46C383.95 183.775 388.33 188.509 391.455 194.665C394.58 200.773 396.142 208.064 396.142 216.54V286H365.886V221.938C365.934 215.261 364.229 210.053 360.773 206.312C357.316 202.525 352.558 200.631 346.497 200.631C342.425 200.631 338.827 201.507 335.702 203.259C332.624 205.01 330.209 207.567 328.457 210.929C326.753 214.243 325.877 218.244 325.83 222.932ZM450.244 222.932V286H419.988V140.545H449.391V196.156H450.67C453.132 189.717 457.109 184.674 462.602 181.028C468.094 177.335 474.983 175.489 483.269 175.489C490.845 175.489 497.45 177.146 503.085 180.46C508.766 183.727 513.17 188.438 516.295 194.594C519.467 200.702 521.03 208.017 520.982 216.54V286H490.727V221.938C490.774 215.214 489.069 209.982 485.613 206.241C482.204 202.501 477.422 200.631 471.266 200.631C467.147 200.631 463.501 201.507 460.329 203.259C457.204 205.01 454.742 207.567 452.942 210.929C451.191 214.243 450.291 218.244 450.244 222.932ZM594.082 288.131C583.05 288.131 573.509 285.787 565.46 281.099C557.458 276.365 551.279 269.783 546.923 261.355C542.567 252.88 540.389 243.055 540.389 231.881C540.389 220.612 542.567 210.763 546.923 202.335C551.279 193.86 557.458 187.278 565.46 182.591C573.509 177.856 583.05 175.489 594.082 175.489C605.115 175.489 614.632 177.856 622.634 182.591C630.683 187.278 636.885 193.86 641.241 202.335C645.598 210.763 647.776 220.612 647.776 231.881C647.776 243.055 645.598 252.88 641.241 261.355C636.885 269.783 630.683 276.365 622.634 281.099C614.632 285.787 605.115 288.131 594.082 288.131ZM594.224 264.693C599.243 264.693 603.434 263.273 606.795 260.432C610.157 257.544 612.69 253.614 614.395 248.642C616.147 243.67 617.023 238.012 617.023 231.668C617.023 225.323 616.147 219.665 614.395 214.693C612.69 209.722 610.157 205.792 606.795 202.903C603.434 200.015 599.243 198.571 594.224 198.571C589.158 198.571 584.897 200.015 581.44 202.903C578.031 205.792 575.451 209.722 573.699 214.693C571.994 219.665 571.142 225.323 571.142 231.668C571.142 238.012 571.994 243.67 573.699 248.642C575.451 253.614 578.031 257.544 581.44 260.432C584.897 263.273 589.158 264.693 594.224 264.693Z" fill="white"/>
    <rect x="668" y="73" width="477" height="277" rx="20" fill="#FF9100"/>
    <path d="M753.563 216.625V286H720.281V126H752.625V187.172H754.031C756.74 180.089 761.115 174.542 767.156 170.531C773.198 166.469 780.776 164.438 789.891 164.438C798.224 164.438 805.49 166.26 811.688 169.906C817.938 173.5 822.781 178.682 826.219 185.453C829.708 192.172 831.427 200.219 831.375 209.594V286H798.094V215.531C798.146 208.135 796.271 202.38 792.469 198.266C788.719 194.151 783.458 192.094 776.688 192.094C772.156 192.094 768.146 193.057 764.656 194.984C761.219 196.911 758.51 199.724 756.531 203.422C754.604 207.068 753.615 211.469 753.563 216.625ZM934.52 234.906V166H967.801V286H935.848V264.203H934.598C931.889 271.234 927.384 276.885 921.082 281.156C914.832 285.427 907.202 287.563 898.191 287.563C890.171 287.563 883.113 285.74 877.02 282.094C870.926 278.448 866.16 273.266 862.723 266.547C859.337 259.828 857.618 251.781 857.566 242.406V166H890.848V236.469C890.9 243.552 892.801 249.151 896.551 253.266C900.301 257.38 905.327 259.437 911.629 259.437C915.639 259.437 919.389 258.526 922.879 256.703C926.368 254.828 929.181 252.068 931.316 248.422C933.504 244.776 934.572 240.271 934.52 234.906ZM995.047 286V126H1028.33V186.156H1029.34C1030.8 182.927 1032.91 179.646 1035.67 176.312C1038.48 172.927 1042.13 170.115 1046.61 167.875C1051.14 165.583 1056.77 164.438 1063.48 164.438C1072.23 164.438 1080.31 166.729 1087.7 171.313C1095.1 175.844 1101.01 182.693 1105.44 191.859C1109.86 200.974 1112.08 212.406 1112.08 226.156C1112.08 239.542 1109.92 250.844 1105.59 260.062C1101.32 269.229 1095.49 276.182 1088.09 280.922C1080.75 285.609 1072.52 287.953 1063.41 287.953C1056.95 287.953 1051.45 286.885 1046.92 284.75C1042.44 282.615 1038.77 279.932 1035.91 276.703C1033.04 273.422 1030.85 270.115 1029.34 266.781H1027.86V286H995.047ZM1027.63 226C1027.63 233.135 1028.61 239.359 1030.59 244.672C1032.57 249.984 1035.44 254.125 1039.19 257.094C1042.94 260.01 1047.49 261.469 1052.86 261.469C1058.28 261.469 1062.86 259.984 1066.61 257.016C1070.36 253.995 1073.2 249.828 1075.13 244.516C1077.1 239.151 1078.09 232.979 1078.09 226C1078.09 219.073 1077.13 212.979 1075.2 207.719C1073.28 202.458 1070.44 198.344 1066.69 195.375C1062.94 192.406 1058.33 190.922 1052.86 190.922C1047.44 190.922 1042.86 192.354 1039.11 195.219C1035.41 198.083 1032.57 202.146 1030.59 207.406C1028.61 212.667 1027.63 218.865 1027.63 226Z" fill="black"/>
</svg>